<?xml version="1.0" standalone="no"?>
<!DOCTYPE svg PUBLIC "-//W3C//DTD SVG 20010904//EN"
 "http://www.w3.org/TR/2001/REC-SVG-20010904/DTD/svg10.dtd">
<svg version="1.0" xmlns="http://www.w3.org/2000/svg"
 width="508.000000pt" height="159.000000pt" viewBox="0 0 508.000000 159.000000"
 preserveAspectRatio="xMidYMid meet">

<g transform="translate(0.000000,159.000000) scale(0.100000,-0.100000)"
fill="#000000" stroke="none">
<path d="M510 895 l0 -345 65 0 65 0 2 218 3 217 134 -217 135 -218 73 0 73 0
0 345 0 345 -70 0 -70 0 -2 -215 -3 -216 -131 213 -130 213 -72 3 -72 3 0
-346z"/>
<path d="M2650 1180 l0 -60 100 0 100 0 0 -285 0 -285 70 0 70 0 0 285 0 285
105 0 105 0 0 60 0 60 -275 0 -275 0 0 -60z"/>
<path d="M1200 800 l0 -250 190 0 190 0 0 55 0 54 -122 3 -123 3 0 45 0 45
108 3 107 3 0 54 0 55 -110 0 -110 0 0 35 0 35 120 0 120 0 0 55 0 55 -185 0
-185 0 0 -250z"/>
<path d="M1620 1044 c0 -4 35 -116 77 -250 l77 -244 66 0 67 0 31 118 c17 64
34 129 38 145 8 36 20 34 28 -5 3 -18 20 -83 37 -145 l31 -113 67 0 66 0 78
243 c42 134 77 247 77 251 0 4 -30 6 -67 4 l-67 -3 -42 -143 c-23 -79 -44
-146 -47 -148 -2 -3 -21 63 -42 146 l-37 150 -68 0 -67 0 -31 -117 c-17 -65
-34 -130 -38 -145 -3 -16 -9 -28 -13 -28 -4 0 -25 64 -48 143 l-40 142 -66 3
c-37 2 -67 0 -67 -4z"/>
<path d="M3270 800 l0 -250 70 0 70 0 0 106 0 106 33 -7 c44 -10 61 -27 123
-122 l54 -83 80 0 c62 0 79 3 74 13 -24 39 -110 165 -125 182 -18 20 -18 21
17 40 20 10 42 31 50 46 19 38 18 124 -3 160 -29 49 -73 59 -268 59 l-175 0 0
-250z m302 143 c19 -17 23 -49 10 -70 -12 -20 -60 -33 -118 -33 l-54 0 0 60 0
60 72 0 c52 0 76 -4 90 -17z"/>
<path d="M3840 800 l0 -250 70 0 70 0 0 250 0 250 -70 0 -70 0 0 -250z"/>
<path d="M4100 800 l0 -250 70 0 70 0 0 105 0 105 118 0 c92 0 124 4 151 18
48 24 73 62 78 119 4 39 0 55 -19 83 -42 63 -69 70 -280 70 l-188 0 0 -250z
m322 148 c23 -19 30 -51 15 -72 -15 -21 -74 -35 -144 -36 l-53 0 0 60 0 60 83
0 c51 0 89 -5 99 -12z"/>
</g>
</svg>
