<?xml version="1.0" standalone="no"?>
<!DOCTYPE svg PUBLIC "-//W3C//DTD SVG 20010904//EN"
 "http://www.w3.org/TR/2001/REC-SVG-20010904/DTD/svg10.dtd">
<svg version="1.0" xmlns="http://www.w3.org/2000/svg"
 width="478.000000pt" height="229.000000pt" viewBox="0 0 478.000000 229.000000"
 preserveAspectRatio="xMidYMid meet">

<g transform="translate(0.000000,229.000000) scale(0.100000,-0.100000)"
fill="#000000" stroke="none">
<path d="M720 1687 c0 -1 -34 -171 -75 -377 -41 -206 -75 -380 -75 -387 0 -9
19 -13 69 -13 l68 0 14 88 14 87 66 3 66 3 14 -88 14 -88 68 -3 c59 -3 67 -1
67 15 0 16 -128 670 -145 741 -5 21 -11 22 -85 22 -44 0 -80 -1 -80 -3z m125
-464 l6 -33 -49 0 -48 0 22 138 c13 75 23 139 24 142 1 3 10 -44 20 -105 10
-60 22 -125 25 -142z"/>
<path d="M1320 1565 l0 -125 -32 20 c-65 40 -143 16 -174 -53 -16 -36 -19 -67
-19 -227 0 -160 2 -190 18 -218 32 -59 115 -79 175 -42 26 16 32 17 32 5 0
-12 15 -15 70 -15 l70 0 0 390 0 390 -70 0 -70 0 0 -125z m-16 -191 c14 -5 16
-31 16 -184 0 -190 0 -190 -50 -190 -37 0 -45 37 -45 196 0 113 3 155 14 167
14 18 38 21 65 11z"/>
<path d="M1780 1570 c0 -66 -2 -120 -4 -120 -2 0 -21 7 -42 16 -45 19 -107 14
-134 -11 -43 -39 -55 -100 -55 -275 0 -187 10 -225 67 -260 42 -25 83 -25 131
0 31 17 37 17 37 5 0 -12 14 -15 65 -15 l65 0 0 390 0 390 -65 0 -65 0 0 -120z
m-11 -204 c8 -9 11 -66 9 -182 l-3 -169 -29 -10 c-24 -8 -31 -6 -47 14 -17 20
-19 41 -19 166 0 168 7 195 49 195 15 0 34 -6 40 -14z"/>
<path d="M2250 1300 l0 -390 75 0 75 0 0 180 0 180 29 0 c31 0 21 28 103 -282
l20 -78 75 0 c66 0 74 2 69 18 -37 126 -96 345 -96 356 0 8 12 21 26 31 76 50
82 252 9 320 -47 45 -94 55 -249 55 l-136 0 0 -390z m265 268 c52 -47 39 -175
-20 -198 -15 -6 -42 -10 -61 -10 l-34 0 0 115 0 115 44 0 c32 0 52 -6 71 -22z"/>
<path d="M3240 1565 l0 -125 -32 20 c-65 40 -143 16 -174 -53 -16 -36 -19 -67
-19 -227 0 -160 2 -190 18 -218 32 -59 115 -79 175 -42 26 16 32 17 32 5 0
-12 15 -15 70 -15 l70 0 0 390 0 390 -70 0 -70 0 0 -125z m-16 -191 c14 -5 16
-31 16 -184 0 -190 0 -190 -50 -190 -37 0 -45 37 -45 196 0 113 3 155 14 167
14 18 38 21 65 11z"/>
<path d="M2784 1656 c-3 -7 -4 -33 -2 -57 l3 -44 68 -3 67 -3 0 61 0 60 -65 0
c-47 0 -67 -4 -71 -14z"/>
<path d="M3551 1458 c-75 -39 -86 -72 -86 -268 0 -187 11 -227 76 -265 49 -29
166 -28 206 1 40 30 61 72 69 137 l7 57 -67 0 -66 0 0 -38 c0 -40 -23 -82 -45
-82 -32 0 -45 30 -45 106 l0 74 111 0 112 0 -5 89 c-9 149 -50 202 -161 209
-50 3 -71 -1 -106 -20z m123 -100 c9 -12 16 -42 16 -65 l0 -43 -45 0 -45 0 0
49 c0 74 41 106 74 59z"/>
<path d="M4114 1466 c-17 -8 -40 -27 -52 -42 l-21 -29 -1 38 0 38 -67 -3 -68
-3 0 -275 0 -275 67 -3 68 -3 2 197 3 197 27 20 c18 14 41 20 68 19 l40 -2 0
70 c0 78 -5 82 -66 56z"/>
<path d="M2780 1190 l0 -280 70 0 70 0 0 280 0 280 -70 0 -70 0 0 -280z"/>
</g>
</svg>
