<?xml version="1.0" standalone="no"?>
<!DOCTYPE svg PUBLIC "-//W3C//DTD SVG 20010904//EN"
 "http://www.w3.org/TR/2001/REC-SVG-20010904/DTD/svg10.dtd">
<svg version="1.0" xmlns="http://www.w3.org/2000/svg"
 width="399.000000pt" height="174.000000pt" viewBox="0 0 399.000000 174.000000"
 preserveAspectRatio="xMidYMid meet">

<g transform="translate(0.000000,174.000000) scale(0.100000,-0.100000)"
fill="#000000" stroke="none">
<path d="M827 1199 c-87 -17 -159 -77 -199 -164 -19 -42 -23 -67 -23 -160 0
-122 15 -170 73 -236 84 -96 262 -117 374 -44 38 25 81 89 93 136 6 25 3 28
-54 47 l-61 21 -23 -47 c-30 -62 -64 -85 -123 -84 -58 0 -91 23 -121 82 -33
63 -33 197 0 260 52 101 192 107 242 9 15 -28 20 -30 48 -24 18 3 47 9 65 12
30 5 33 9 27 32 -26 113 -176 188 -318 160z"/>
<path d="M2517 1200 c-103 -18 -177 -75 -221 -169 -31 -69 -30 -236 2 -306 30
-65 83 -118 146 -147 42 -19 67 -23 146 -22 100 1 148 13 227 60 l43 25 0 129
0 130 -140 0 -140 0 0 -55 0 -55 75 0 75 0 0 -35 c0 -41 -25 -62 -100 -81
-131 -34 -222 53 -222 210 0 128 54 197 159 203 67 5 113 -17 141 -67 10 -18
23 -28 32 -25 8 2 36 7 63 11 53 7 57 16 28 72 -24 47 -66 87 -111 105 -46 19
-143 27 -203 17z"/>
<path d="M3092 1017 c-91 -34 -142 -114 -142 -227 0 -118 47 -189 149 -225
171 -60 333 66 319 248 -8 97 -51 161 -133 198 -46 21 -142 24 -193 6z m137
-102 c69 -35 82 -168 24 -227 -50 -49 -127 -39 -158 22 -17 33 -20 116 -5 154
10 28 64 66 93 66 10 0 31 -7 46 -15z"/>
<path d="M1367 1013 c-5 -7 -97 -243 -153 -390 l-24 -63 68 0 68 0 18 50 18
51 90 -3 90 -3 18 -45 18 -45 66 -3 c36 -2 66 1 66 5 1 4 -39 108 -87 230
l-88 223 -82 0 c-45 0 -84 -3 -86 -7z m110 -183 l22 -60 -48 0 -48 0 21 60
c12 33 23 60 26 60 3 0 15 -27 27 -60z"/>
<path d="M1770 791 l0 -231 60 0 59 0 3 93 c3 85 5 92 24 95 31 4 73 -36 124
-117 l45 -71 72 0 c40 0 73 3 73 6 0 3 -29 48 -64 100 l-65 94 29 15 c76 39
82 174 11 222 -22 15 -54 19 -198 21 l-173 4 0 -231z m260 136 c15 -8 26 -23
28 -39 5 -39 -29 -58 -105 -58 l-63 0 0 48 c0 27 3 52 7 55 11 12 107 7 133
-6z"/>
</g>
</svg>
