<?xml version="1.0" standalone="no"?>
<!DOCTYPE svg PUBLIC "-//W3C//DTD SVG 20010904//EN"
 "http://www.w3.org/TR/2001/REC-SVG-20010904/DTD/svg10.dtd">
<svg version="1.0" xmlns="http://www.w3.org/2000/svg"
 width="778.000000pt" height="188.000000pt" viewBox="0 0 778.000000 188.000000"
 preserveAspectRatio="xMidYMid meet">

<g transform="translate(0.000000,188.000000) scale(0.100000,-0.100000)"
fill="#000000" stroke="none">
<path d="M640 1050 l0 -390 121 0 c151 0 201 12 249 60 52 52 60 95 60 335 0
234 -8 282 -55 329 -45 45 -93 56 -244 56 l-131 0 0 -390z m223 279 c26 -7 41
-18 47 -35 6 -14 10 -126 10 -249 0 -218 -1 -225 -22 -249 -17 -18 -35 -26
-68 -28 l-45 -3 -3 275 c-1 151 0 280 3 287 5 16 28 16 78 2z"/>
<path d="M4040 1385 l0 -55 60 0 60 0 0 -335 0 -335 75 0 75 0 0 335 0 335 60
0 60 0 0 55 0 55 -195 0 -195 0 0 -55z"/>
<path d="M6080 1050 l0 -390 70 0 70 0 0 390 0 390 -70 0 -70 0 0 -390z"/>
<path d="M6970 1315 l0 -125 -32 20 c-62 38 -142 18 -175 -43 -15 -26 -19 -63
-21 -214 -3 -165 -2 -186 17 -228 31 -71 101 -93 174 -56 30 15 37 16 37 4 0
-11 14 -13 68 -11 l67 3 3 388 2 387 -70 0 -70 0 0 -125z m-16 -191 c14 -5 16
-31 16 -185 l0 -179 -27 -6 c-61 -16 -76 27 -71 211 2 93 7 137 17 148 14 18
38 21 65 11z"/>
<path d="M1170 1360 l0 -60 65 0 65 0 0 60 0 60 -65 0 -65 0 0 -60z"/>
<path d="M1810 1305 l0 -85 -30 0 c-29 0 -30 -2 -30 -45 0 -43 1 -45 30 -45
l30 0 0 -195 c0 -217 6 -243 59 -265 30 -12 64 -15 129 -12 l32 2 0 55 c0 52
-1 55 -22 50 -13 -3 -32 1 -43 9 -18 13 -20 28 -23 185 l-3 171 45 0 46 0 0
45 0 45 -45 0 -45 0 0 85 0 85 -65 0 -65 0 0 -85z"/>
<path d="M1465 1211 c-50 -26 -78 -71 -78 -127 0 -66 18 -96 114 -184 73 -67
89 -87 89 -111 0 -22 -6 -30 -24 -35 -34 -8 -63 10 -77 51 -7 19 -17 35 -21
35 -7 0 -89 -30 -96 -36 -6 -4 29 -78 46 -98 25 -28 91 -56 134 -56 116 0 188
88 158 196 -10 35 -31 61 -107 134 -98 93 -110 119 -70 144 23 15 47 -1 70
-46 l18 -37 42 19 c46 21 48 31 18 89 -25 51 -62 74 -123 78 -39 3 -63 -1 -93
-16z"/>
<path d="M2204 1219 c-47 -13 -91 -69 -100 -124 -3 -25 -4 -49 0 -52 4 -4 33
-9 66 -11 l60 -4 0 35 c0 43 32 72 62 56 14 -7 18 -21 18 -59 l0 -48 -69 -32
c-102 -47 -151 -109 -151 -192 0 -117 129 -180 203 -98 l27 31 6 -31 c6 -29 8
-30 66 -30 l60 0 -4 228 c-3 195 -6 232 -22 264 -32 65 -129 94 -222 67z m95
-445 c-14 -17 -51 -18 -67 -2 -7 7 -12 27 -12 46 0 27 9 43 43 76 l42 41 3
-73 c2 -46 -2 -79 -9 -88z"/>
<path d="M2724 1205 c-27 -14 -50 -25 -51 -25 -2 0 -3 9 -3 20 0 18 -7 20 -65
20 l-65 0 0 -280 0 -280 65 0 65 0 0 220 0 219 29 16 c38 19 57 11 65 -27 3
-17 6 -120 6 -229 l0 -199 65 0 65 0 0 245 c0 200 -3 251 -15 275 -29 56 -83
65 -161 25z"/>
<path d="M3071 1208 c-76 -39 -86 -72 -86 -268 0 -147 2 -169 21 -205 30 -59
90 -88 171 -82 107 8 153 57 153 165 l0 62 -59 0 -58 0 -6 -51 c-7 -57 -20
-79 -48 -79 -32 0 -39 34 -39 190 0 156 7 190 39 190 27 0 40 -21 47 -74 l7
-46 58 0 59 0 0 56 c0 106 -45 153 -154 161 -50 4 -69 0 -105 -19z"/>
<path d="M3493 1210 c-31 -16 -48 -34 -65 -68 -21 -43 -23 -61 -23 -197 0 -98
5 -163 13 -187 18 -50 70 -94 122 -103 132 -22 220 48 220 178 l0 37 -65 0
-65 0 0 -43 c0 -43 -21 -77 -48 -77 -25 0 -42 45 -42 112 l0 68 111 0 112 0
-5 94 c-6 103 -21 143 -71 179 -41 31 -139 35 -194 7z m116 -89 c8 -5 16 -32
19 -65 l4 -56 -46 0 -46 0 0 43 c0 65 32 101 69 78z"/>
<path d="M4715 1223 c-11 -3 -35 -19 -52 -36 l-33 -31 0 32 0 32 -70 0 -70 0
0 -280 0 -280 70 0 70 0 0 193 c0 189 1 194 23 215 17 16 36 22 71 22 l47 0
-3 67 c-3 71 -8 77 -53 66z"/>
<path d="M4921 1216 c-42 -15 -77 -55 -90 -104 -21 -72 -12 -82 77 -82 40 0
42 1 42 30 0 40 33 74 59 61 16 -9 30 -55 31 -97 0 -7 -25 -22 -55 -34 -110
-45 -155 -92 -170 -177 -21 -130 121 -214 206 -120 l29 31 0 -32 0 -32 63 0
62 0 -3 212 c-3 225 -9 269 -42 311 -35 44 -135 60 -209 33z m119 -353 c0 -74
-16 -103 -56 -103 -56 0 -55 89 2 139 19 17 39 31 44 31 6 0 10 -30 10 -67z"/>
<path d="M5745 1219 c-38 -11 -79 -53 -94 -98 -6 -19 -11 -98 -11 -181 0 -83
5 -162 11 -181 26 -77 98 -117 192 -105 96 11 147 71 147 171 l0 45 -65 0 -65
0 0 -44 c0 -72 -49 -101 -77 -46 -7 14 -13 53 -13 88 l0 62 111 0 111 0 -4 93
c-4 116 -24 162 -82 188 -43 20 -111 23 -161 8z m105 -108 c5 -11 10 -40 10
-65 l0 -46 -46 0 -47 0 5 50 c3 27 11 56 18 65 17 21 47 19 60 -4z"/>
<path d="M6415 1219 c-38 -11 -79 -53 -94 -98 -6 -19 -11 -98 -11 -181 0 -83
5 -162 11 -181 26 -77 98 -117 192 -105 96 11 147 71 147 171 l0 45 -65 0 -65
0 0 -44 c0 -72 -49 -101 -77 -46 -7 14 -13 53 -13 88 l0 62 111 0 111 0 -4 93
c-4 116 -24 162 -82 188 -43 20 -111 23 -161 8z m105 -108 c5 -11 10 -40 10
-65 l0 -46 -46 0 -47 0 5 50 c3 27 11 56 18 65 17 21 47 19 60 -4z"/>
<path d="M1170 940 l0 -280 65 0 65 0 0 280 0 280 -65 0 -65 0 0 -280z"/>
<path d="M5224 1203 c3 -10 23 -112 46 -228 22 -116 45 -234 51 -263 l11 -53
76 3 77 3 52 265 c29 146 52 271 52 278 1 8 -18 12 -63 12 l-64 0 -6 -32 c-3
-18 -13 -91 -22 -163 -9 -71 -20 -136 -23 -143 -4 -7 -18 66 -31 163 l-24 175
-69 0 c-60 0 -68 -2 -63 -17z"/>
</g>
</svg>
