<?xml version="1.0" standalone="no"?>
<!DOCTYPE svg PUBLIC "-//W3C//DTD SVG 20010904//EN"
 "http://www.w3.org/TR/2001/REC-SVG-20010904/DTD/svg10.dtd">
<svg version="1.0" xmlns="http://www.w3.org/2000/svg"
 width="413.000000pt" height="195.000000pt" viewBox="0 0 413.000000 195.000000"
 preserveAspectRatio="xMidYMid meet">

<g transform="translate(0.000000,195.000000) scale(0.100000,-0.100000)"
fill="#000000" stroke="none">
<path d="M630 1110 l0 -390 121 0 c151 0 201 12 249 60 52 52 60 95 60 335 0
234 -8 282 -55 329 -45 45 -93 56 -244 56 l-131 0 0 -390z m223 279 c26 -7 41
-18 47 -35 6 -14 10 -126 10 -249 0 -218 -1 -225 -22 -249 -17 -18 -35 -26
-68 -28 l-45 -3 -3 275 c-1 151 0 280 3 287 5 16 28 16 78 2z"/>
<path d="M1494 1466 c-3 -7 -4 -33 -2 -57 l3 -44 68 -3 67 -3 0 61 0 60 -65 0
c-47 0 -67 -4 -71 -14z"/>
<path d="M2120 1420 l0 -61 68 3 67 3 3 58 3 57 -71 0 -70 0 0 -60z"/>
<path d="M3140 1272 l-34 -29 -28 20 c-68 51 -198 27 -246 -46 -24 -36 -27
-50 -27 -121 0 -66 4 -88 22 -119 l23 -38 -25 -37 c-33 -48 -32 -88 1 -123 26
-27 26 -27 5 -38 -11 -7 -28 -25 -36 -41 -49 -94 28 -160 187 -160 82 0 132
15 170 49 27 24 32 36 36 88 5 71 -13 115 -57 138 -16 8 -71 19 -121 25 -105
12 -110 14 -110 40 0 17 7 19 68 19 37 0 78 4 92 9 73 28 111 120 93 227 l-10
57 43 19 43 19 -14 33 c-17 42 -33 44 -75 9z m-128 -89 c14 -13 18 -31 18 -85
0 -84 -11 -108 -49 -108 -38 0 -55 40 -49 119 6 85 37 113 80 74z m59 -463
c27 -15 21 -51 -11 -67 -14 -7 -45 -13 -70 -13 -82 0 -122 39 -83 82 16 18 26
20 80 15 35 -4 72 -11 84 -17z"/>
<path d="M1364 1276 c-17 -8 -40 -27 -52 -42 l-21 -29 -1 38 0 38 -67 -3 -68
-3 0 -275 0 -275 67 -3 68 -3 2 197 3 197 27 20 c18 14 41 20 68 19 l40 -2 0
70 c0 78 -5 82 -66 56z"/>
<path d="M2541 1265 c-52 -30 -51 -30 -51 -5 0 18 -7 20 -70 20 l-70 0 0 -280
0 -280 70 0 70 0 0 220 0 219 31 16 c56 30 59 20 59 -231 l0 -224 70 0 70 0
-1 238 c0 163 -4 248 -13 272 -23 63 -90 77 -165 35z"/>
<path d="M1490 1000 l0 -280 70 0 70 0 0 280 0 280 -70 0 -70 0 0 -280z"/>
<path d="M1694 1263 c3 -10 23 -112 46 -228 22 -116 45 -234 51 -263 l11 -53
76 3 77 3 52 265 c29 146 52 271 52 278 1 8 -18 12 -63 12 l-64 0 -6 -32 c-3
-18 -13 -91 -22 -163 -9 -71 -20 -136 -23 -143 -4 -7 -18 66 -31 163 l-24 175
-69 0 c-60 0 -68 -2 -63 -17z"/>
<path d="M2120 1000 l0 -280 70 0 70 0 0 280 0 280 -70 0 -70 0 0 -280z"/>
<path d="M3254 846 c-3 -7 -4 -38 -2 -67 l3 -54 68 -3 67 -3 0 71 0 70 -65 0
c-46 0 -67 -4 -71 -14z"/>
</g>
</svg>
