<?xml version="1.0" standalone="no"?>
<!DOCTYPE svg PUBLIC "-//W3C//DTD SVG 20010904//EN"
 "http://www.w3.org/TR/2001/REC-SVG-20010904/DTD/svg10.dtd">
<svg version="1.0" xmlns="http://www.w3.org/2000/svg"
 width="405.000000pt" height="193.000000pt" viewBox="0 0 405.000000 193.000000"
 preserveAspectRatio="xMidYMid meet">

<g transform="translate(0.000000,193.000000) scale(0.100000,-0.100000)"
fill="#000000" stroke="none">
<path d="M2537 1436 c-50 -18 -71 -38 -99 -94 -22 -45 -23 -56 -23 -287 0
-238 0 -240 26 -296 23 -48 34 -60 80 -82 88 -45 207 -34 273 24 60 52 69 91
74 305 6 294 -16 382 -111 425 -50 22 -163 25 -220 5z m160 -123 c16 -24 18
-54 18 -263 0 -167 -4 -241 -12 -256 -27 -47 -116 -36 -131 15 -4 14 -7 127
-7 251 0 199 2 229 18 253 14 22 25 27 57 27 32 0 43 -5 57 -27z"/>
<path d="M430 1050 l0 -390 121 0 c151 0 201 12 249 60 52 52 60 95 60 335 0
234 -8 282 -55 329 -45 45 -93 56 -244 56 l-131 0 0 -390z m223 279 c26 -7 41
-18 47 -35 6 -14 10 -126 10 -249 0 -218 -1 -225 -22 -249 -17 -18 -35 -26
-68 -28 l-45 -3 -3 275 c-1 151 0 280 3 287 5 16 28 16 78 2z"/>
<path d="M3043 1404 c-36 -18 -49 -46 -59 -126 -6 -56 -7 -58 -36 -58 -29 0
-29 -1 -26 -47 3 -44 5 -48 31 -51 l27 -3 0 -230 0 -229 70 0 70 0 0 230 0
230 65 0 65 0 0 -230 0 -230 65 0 65 0 0 230 0 230 40 0 40 0 0 50 0 50 -41 0
-42 0 6 36 c8 48 25 67 54 59 22 -5 23 -3 23 50 l0 55 -60 0 c-107 0 -150 -43
-150 -150 l0 -50 -65 0 -65 0 0 33 c0 43 13 61 47 63 27 1 28 3 28 50 l0 49
-60 2 c-39 2 -71 -2 -92 -13z"/>
<path d="M1164 1216 c-17 -8 -40 -27 -52 -42 l-21 -29 -1 38 0 38 -67 -3 -68
-3 0 -275 0 -275 67 -3 68 -3 2 197 3 197 27 20 c18 14 41 20 68 19 l40 -2 0
70 c0 78 -5 82 -66 56z"/>
<path d="M1370 1208 c-77 -40 -85 -64 -85 -268 0 -204 8 -228 85 -267 93 -47
205 -17 248 67 20 40 22 59 22 196 0 163 -8 203 -48 247 -48 50 -149 62 -222
25z m127 -108 c8 -16 13 -71 13 -160 0 -144 -10 -183 -46 -188 -42 -6 -49 20
-49 188 0 120 3 161 14 174 19 23 53 16 68 -14z"/>
<path d="M1905 1210 c-47 -24 -45 -24 -45 -5 0 12 -14 15 -65 15 l-65 0 0
-370 0 -370 65 0 65 0 0 106 c0 58 3 104 8 102 86 -45 136 -46 179 -6 43 40
56 112 51 287 -3 135 -7 161 -25 197 -34 65 -95 81 -168 44z m45 -99 c5 -11
10 -86 10 -171 0 -85 -5 -160 -10 -171 -12 -21 -41 -25 -71 -9 -18 10 -19 23
-19 178 0 117 4 172 12 180 19 19 66 15 78 -7z"/>
</g>
</svg>
