<?xml version="1.0" standalone="no"?>
<!DOCTYPE svg PUBLIC "-//W3C//DTD SVG 20010904//EN"
 "http://www.w3.org/TR/2001/REC-SVG-20010904/DTD/svg10.dtd">
<svg version="1.0" xmlns="http://www.w3.org/2000/svg"
 width="754.000000pt" height="213.000000pt" viewBox="0 0 754.000000 213.000000"
 preserveAspectRatio="xMidYMid meet">

<g transform="translate(0.000000,213.000000) scale(0.100000,-0.100000)"
fill="#000000" stroke="none">
<path d="M6723 1579 c-60 -30 -87 -77 -87 -154 0 -77 5 -86 47 -75 17 4 44 11
58 14 23 5 26 10 25 45 -1 49 17 71 60 71 43 0 64 -30 64 -90 -1 -64 -30 -122
-100 -194 l-60 -63 0 -61 0 -62 60 0 60 0 0 41 c0 37 7 49 66 112 37 38 75 89
85 112 39 89 34 200 -13 260 -50 64 -181 86 -265 44z"/>
<path d="M460 1200 l0 -390 70 0 70 0 0 175 0 175 80 0 80 0 0 -175 0 -176 73
3 72 3 3 388 2 387 -75 0 -75 0 0 -160 0 -160 -80 0 -80 0 0 160 0 160 -70 0
-70 0 0 -390z"/>
<path d="M5260 1465 l0 -125 -32 20 c-65 40 -143 16 -174 -53 -16 -36 -19 -67
-19 -227 0 -160 2 -190 18 -218 32 -59 115 -79 175 -42 26 16 32 17 32 5 0
-12 15 -15 70 -15 l70 0 0 390 0 390 -70 0 -70 0 0 -125z m-16 -191 c14 -5 16
-31 16 -184 0 -190 0 -190 -50 -190 -37 0 -45 37 -45 196 0 113 3 155 14 167
14 18 38 21 65 11z"/>
<path d="M4804 1556 c-3 -7 -4 -33 -2 -57 l3 -44 68 -3 67 -3 0 61 0 60 -65 0
c-47 0 -67 -4 -71 -14z"/>
<path d="M1090 1358 c-77 -40 -85 -64 -85 -268 0 -204 8 -228 85 -267 93 -47
205 -17 248 67 20 40 22 59 22 196 0 163 -8 203 -48 247 -48 50 -149 62 -222
25z m127 -108 c8 -16 13 -71 13 -160 0 -144 -10 -183 -46 -188 -42 -6 -49 20
-49 188 0 120 3 161 14 174 19 23 53 16 68 -14z"/>
<path d="M2440 1369 c-13 -6 -33 -17 -42 -26 -17 -15 -18 -15 -18 5 0 20 -5
22 -70 22 l-70 0 0 -280 0 -280 70 0 70 0 0 225 0 224 30 16 c36 19 35 19 54
-1 14 -13 16 -49 16 -240 l0 -224 65 0 65 0 0 225 0 224 30 16 c23 12 35 13
50 5 19 -10 20 -21 20 -240 l0 -230 65 0 65 0 0 245 c0 267 -4 290 -55 313
-50 23 -119 11 -161 -29 l-21 -20 -31 30 c-33 33 -81 40 -132 20z"/>
<path d="M3031 1366 c-42 -15 -77 -55 -90 -104 -21 -72 -12 -82 77 -82 40 0
42 1 42 30 0 40 33 74 59 61 16 -9 30 -55 31 -97 0 -7 -25 -22 -55 -34 -110
-45 -155 -92 -170 -177 -21 -130 121 -214 206 -120 l29 31 0 -32 0 -32 63 0
62 0 -3 212 c-3 225 -9 269 -42 311 -35 44 -135 60 -209 33z m119 -353 c0 -74
-16 -103 -56 -103 -56 0 -55 89 2 139 19 17 39 31 44 31 6 0 10 -30 10 -67z"/>
<path d="M3554 1355 c-27 -14 -50 -25 -51 -25 -2 0 -3 9 -3 20 0 18 -7 20 -65
20 l-65 0 0 -280 0 -280 65 0 65 0 0 220 0 219 29 16 c38 19 57 11 65 -27 3
-17 6 -120 6 -229 l0 -199 65 0 65 0 0 245 c0 200 -3 251 -15 275 -29 56 -83
65 -161 25z"/>
<path d="M4674 1366 c-17 -8 -40 -26 -52 -41 l-22 -28 0 37 0 36 -70 0 -70 0
0 -280 0 -280 70 0 70 0 0 193 c0 192 0 194 25 217 18 17 35 22 70 22 l45 -1
0 69 c0 78 -5 82 -66 56z"/>
<path d="M5571 1358 c-75 -39 -86 -72 -86 -268 0 -187 11 -227 76 -265 49 -29
166 -28 206 1 40 30 61 72 69 137 l7 57 -67 0 -66 0 0 -38 c0 -40 -23 -82 -45
-82 -32 0 -45 30 -45 106 l0 74 111 0 112 0 -5 89 c-9 149 -50 202 -161 209
-50 3 -71 -1 -106 -20z m123 -100 c9 -12 16 -42 16 -65 l0 -43 -45 0 -45 0 0
49 c0 74 41 106 74 59z"/>
<path d="M6134 1366 c-17 -8 -40 -26 -52 -41 l-22 -28 0 37 0 36 -70 0 -70 0
0 -280 0 -280 70 0 70 0 0 193 c0 192 0 194 25 217 18 17 35 22 70 22 l45 -1
0 69 c0 78 -5 82 -66 56z"/>
<path d="M6325 1361 c-50 -26 -78 -71 -78 -127 0 -66 18 -96 114 -184 73 -67
89 -87 89 -111 0 -22 -6 -30 -24 -35 -34 -8 -63 10 -77 51 -7 19 -17 35 -21
35 -7 0 -89 -30 -96 -36 -6 -4 29 -78 46 -98 25 -28 91 -56 134 -56 116 0 188
88 158 196 -10 35 -31 61 -107 134 -98 93 -110 119 -70 144 23 15 47 -1 70
-46 l18 -37 42 19 c46 21 48 31 18 89 -25 51 -62 74 -123 78 -39 3 -63 -1 -93
-16z"/>
<path d="M1420 1351 c0 -10 18 -134 40 -276 22 -142 40 -259 40 -261 0 -2 27
-4 59 -4 l60 0 10 53 c6 28 18 95 27 147 9 52 20 98 23 102 4 5 15 -40 25
-100 10 -59 22 -128 28 -154 l10 -48 57 0 57 0 42 268 c23 147 42 273 42 280
0 8 -17 12 -53 12 l-54 0 -22 -157 c-12 -87 -24 -159 -26 -161 -2 -2 -7 18
-11 45 -4 26 -14 98 -23 158 l-17 110 -52 3 c-29 2 -52 0 -52 -4 0 -13 -51
-309 -54 -312 -2 -1 -11 55 -20 125 -28 212 -20 193 -82 193 -46 0 -54 -3 -54
-19z"/>
<path d="M3780 1364 c0 -3 30 -119 66 -257 36 -139 66 -270 67 -292 2 -39 1
-40 -40 -49 l-43 -10 0 -48 0 -48 43 0 c60 0 128 36 149 80 13 27 148 596 148
624 0 3 -29 6 -64 6 -74 0 -63 21 -97 -182 -13 -76 -26 -138 -29 -138 -3 0
-19 66 -34 148 -16 81 -31 153 -34 160 -4 12 -132 19 -132 6z"/>
<path d="M4800 1090 l0 -280 70 0 70 0 0 280 0 280 -70 0 -70 0 0 -280z"/>
<path d="M6730 875 l0 -65 65 0 65 0 0 65 0 65 -65 0 -65 0 0 -65z"/>
</g>
</svg>
