<?xml version="1.0" standalone="no"?>
<!DOCTYPE svg PUBLIC "-//W3C//DTD SVG 20010904//EN"
 "http://www.w3.org/TR/2001/REC-SVG-20010904/DTD/svg10.dtd">
<svg version="1.0" xmlns="http://www.w3.org/2000/svg"
 width="357.000000pt" height="164.000000pt" viewBox="0 0 357.000000 164.000000"
 preserveAspectRatio="xMidYMid meet">

<g transform="translate(0.000000,164.000000) scale(0.100000,-0.100000)"
fill="#000000" stroke="none">
<path d="M690 870 l0 -390 70 0 70 0 2 178 3 177 30 0 29 0 46 -175 46 -175
72 -3 c53 -2 72 0 72 10 0 7 -23 92 -51 190 l-50 178 35 31 c40 35 56 79 56
159 0 79 -16 124 -55 159 -48 42 -90 51 -242 51 l-133 0 0 -390z m268 267 c10
-11 17 -39 20 -80 4 -56 1 -67 -20 -92 -19 -22 -35 -29 -76 -33 l-52 -5 0 118
0 117 56 -4 c33 -3 62 -11 72 -21z"/>
<path d="M1680 1135 l0 -125 -32 20 c-62 38 -142 18 -175 -43 -15 -26 -19 -63
-21 -214 -3 -165 -2 -186 17 -228 31 -71 101 -93 174 -56 30 15 37 16 37 4 0
-11 14 -13 68 -11 l67 3 3 388 2 387 -70 0 -70 0 0 -125z m-16 -191 c14 -5 16
-31 16 -185 l0 -179 -27 -6 c-61 -16 -76 27 -71 211 2 93 7 137 17 148 14 18
38 21 65 11z"/>
<path d="M1220 1180 l0 -60 65 0 65 0 0 60 0 60 -65 0 -65 0 0 -60z"/>
<path d="M2012 1044 c-37 -9 -89 -66 -102 -114 -7 -27 -10 -99 -8 -194 4 -177
14 -206 88 -243 87 -45 206 -17 242 57 10 20 18 58 18 88 l0 52 -59 0 -59 0
-7 -49 c-8 -60 -26 -79 -59 -63 -25 11 -36 50 -36 129 l0 42 113 3 112 3 -3
80 c-4 151 -44 205 -155 210 -34 2 -72 1 -85 -1z m96 -107 c6 -7 12 -35 14
-62 l3 -50 -45 0 -45 0 3 50 c4 55 15 75 42 75 10 0 22 -6 28 -13z"/>
<path d="M2565 1043 c-11 -3 -35 -19 -52 -36 l-33 -31 0 32 0 32 -70 0 -70 0
0 -280 0 -280 70 0 70 0 0 193 c0 189 1 194 23 215 17 16 36 22 71 22 l47 0
-3 67 c-3 71 -8 77 -53 66z"/>
<path d="M2756 1040 c-59 -19 -96 -73 -96 -142 0 -58 22 -90 119 -178 83 -75
103 -108 80 -136 -27 -32 -91 6 -111 67 -5 15 -98 -21 -98 -38 0 -8 10 -33 22
-55 73 -130 296 -109 315 30 11 83 -1 106 -108 211 -54 54 -99 102 -99 107 0
6 6 18 13 29 22 30 65 12 85 -35 l17 -39 44 19 c39 18 43 22 37 47 -22 90
-126 143 -220 113z"/>
<path d="M1220 760 l0 -280 65 0 65 0 0 280 0 280 -65 0 -65 0 0 -280z"/>
</g>
</svg>
