<?xml version="1.0" standalone="no"?>
<!DOCTYPE svg PUBLIC "-//W3C//DTD SVG 20010904//EN"
 "http://www.w3.org/TR/2001/REC-SVG-20010904/DTD/svg10.dtd">
<svg version="1.0" xmlns="http://www.w3.org/2000/svg"
 width="610.000000pt" height="187.000000pt" viewBox="0 0 610.000000 187.000000"
 preserveAspectRatio="xMidYMid meet">

<g transform="translate(0.000000,187.000000) scale(0.100000,-0.100000)"
fill="#000000" stroke="none">
<path d="M2139 1451 c-77 -25 -119 -90 -119 -186 0 -87 25 -129 141 -236 108
-99 129 -129 129 -182 0 -42 -26 -67 -68 -67 -39 0 -61 29 -70 95 -4 25 -9 46
-12 47 -3 0 -29 -3 -58 -7 -64 -8 -70 -19 -54 -93 23 -110 101 -168 217 -160
117 7 184 80 185 199 0 85 -34 143 -147 247 -103 95 -123 124 -123 175 0 40
25 67 63 67 32 0 57 -33 64 -88 l5 -38 65 10 64 9 -6 41 c-10 60 -42 123 -77
148 -34 23 -150 35 -199 19z"/>
<path d="M310 1395 l0 -55 60 0 60 0 0 -335 0 -335 75 0 75 0 0 335 0 335 60
0 60 0 0 55 0 55 -195 0 -195 0 0 -55z"/>
<path d="M1100 1370 l0 -61 68 3 67 3 3 58 3 57 -71 0 -70 0 0 -60z"/>
<path d="M974 1226 c-17 -8 -40 -26 -52 -41 l-22 -28 0 37 0 36 -70 0 -70 0 0
-280 0 -280 70 0 70 0 0 193 c0 192 0 194 25 217 18 17 35 22 70 22 l45 -1 0
69 c0 78 -5 82 -66 56z"/>
<path d="M1515 1220 c-47 -24 -45 -24 -45 -5 0 12 -14 15 -65 15 l-65 0 0
-370 0 -370 65 0 65 0 0 106 c0 58 3 104 8 102 86 -45 136 -46 179 -6 43 40
56 112 51 287 -3 135 -7 161 -25 197 -34 65 -95 81 -168 44z m45 -99 c5 -11
10 -86 10 -171 0 -85 -5 -160 -10 -171 -12 -21 -41 -25 -71 -9 -18 10 -19 23
-19 178 0 117 4 172 12 180 19 19 66 15 78 -7z"/>
<path d="M3150 1229 c-13 -6 -33 -17 -42 -26 -17 -15 -18 -15 -18 5 0 20 -5
22 -70 22 l-70 0 0 -280 0 -280 70 0 70 0 0 225 0 224 30 16 c36 19 35 19 54
-1 14 -13 16 -49 16 -240 l0 -224 65 0 65 0 0 225 0 224 30 16 c23 12 35 13
50 5 19 -10 20 -21 20 -240 l0 -230 65 0 65 0 0 245 c0 267 -4 290 -55 313
-50 23 -119 11 -161 -29 l-21 -20 -31 30 c-33 33 -81 40 -132 20z"/>
<path d="M3840 1229 c-13 -6 -33 -17 -42 -26 -17 -15 -18 -15 -18 5 0 20 -5
22 -70 22 l-70 0 0 -280 0 -280 70 0 70 0 0 225 0 224 30 16 c36 19 35 19 54
-1 14 -13 16 -49 16 -240 l0 -224 65 0 65 0 0 225 0 224 30 16 c23 12 35 13
50 5 19 -10 20 -21 20 -240 l0 -230 65 0 65 0 0 245 c0 267 -4 290 -55 313
-50 23 -119 11 -161 -29 l-21 -20 -31 30 c-33 33 -81 40 -132 20z"/>
<path d="M4434 1229 c-47 -13 -91 -69 -100 -124 -3 -25 -4 -49 0 -52 4 -4 33
-9 66 -11 l60 -4 0 35 c0 43 32 72 62 56 14 -7 18 -21 18 -59 l0 -48 -69 -32
c-102 -47 -151 -109 -151 -192 0 -117 129 -180 203 -98 l27 31 6 -31 c6 -29 8
-30 66 -30 l60 0 -4 228 c-3 195 -6 232 -22 264 -32 65 -129 94 -222 67z m95
-445 c-14 -17 -51 -18 -67 -2 -7 7 -12 27 -12 46 0 27 9 43 43 76 l42 41 3
-73 c2 -46 -2 -79 -9 -88z"/>
<path d="M4995 1233 c-11 -3 -35 -19 -52 -36 l-33 -31 0 32 0 32 -70 0 -70 0
0 -280 0 -280 70 0 70 0 0 193 c0 189 1 194 23 215 17 16 36 22 71 22 l47 0
-3 67 c-3 71 -8 77 -53 66z"/>
<path d="M1100 950 l0 -280 70 0 70 0 0 280 0 280 -70 0 -70 0 0 -280z"/>
<path d="M2502 969 l3 -261 28 -24 c36 -31 81 -31 141 1 44 23 46 24 46 5 0
-18 7 -20 70 -20 l70 0 0 280 0 280 -70 0 -70 0 0 -224 0 -224 -31 -13 c-55
-22 -59 -6 -59 243 l0 218 -65 0 -66 0 3 -261z"/>
<path d="M5064 1213 c31 -106 136 -526 136 -546 0 -29 -24 -47 -64 -47 -25 0
-26 -3 -26 -51 l0 -52 62 6 c67 6 102 26 130 74 15 25 148 583 148 621 0 8
-19 12 -64 12 l-64 0 -10 -57 c-6 -32 -18 -109 -28 -171 -11 -67 -21 -106 -25
-95 -3 10 -19 87 -35 170 l-29 153 -68 0 c-60 0 -68 -2 -63 -17z"/>
</g>
</svg>
